<svg width="48" height="49" viewBox="0 0 48 49" fill="none" xmlns="http://www.w3.org/2000/svg">
<g id="Frame">
<path id="Vector" d="M45.3844 10.85C44.8688 10.5564 44.2856 10.4021 43.6924 10.4021C43.0991 10.4021 42.5159 10.5564 42.0004 10.85L34.8004 15.05V14.138C34.8004 12.7854 34.2631 11.4882 33.3067 10.5317C32.3501 9.57529 31.0529 9.03796 29.7004 9.03796H6.00039C4.64778 9.03796 3.35058 9.57529 2.39414 10.5317C1.43771 11.4882 0.900391 12.7854 0.900391 14.138V35.3899C0.900391 36.0597 1.03231 36.723 1.2886 37.3417C1.5449 37.9605 1.92057 38.5227 2.39414 38.9962C2.86772 39.4698 3.42995 39.8455 4.0487 40.1017C4.66746 40.3581 5.33064 40.4899 6.00039 40.4899H29.6764C30.3481 40.4932 31.0139 40.3636 31.6354 40.1086C32.257 39.8538 32.822 39.4786 33.2981 39.0048C33.7742 38.5309 34.1521 37.9675 34.4099 37.3473C34.6676 36.7269 34.8004 36.0618 34.8004 35.3899V34.4779L42.0004 38.6299C42.5221 38.931 43.1141 39.0883 43.7164 39.0859C44.315 39.0897 44.9036 38.9322 45.4204 38.6299C45.9442 38.3332 46.3793 37.9021 46.681 37.3812C46.9826 36.8601 47.1399 36.268 47.1364 35.6659V13.862C47.145 13.2482 46.9865 12.6437 46.6778 12.1131C46.3693 11.5826 45.9221 11.1459 45.3844 10.85ZM31.7764 16.7299V35.3899C31.7764 35.9469 31.5551 36.481 31.1612 36.8749C30.7675 37.2687 30.2333 37.4899 29.6764 37.4899H6.00039C5.44343 37.4899 4.90929 37.2687 4.51547 36.8749C4.12164 36.481 3.90039 35.9469 3.90039 35.3899V14.138C3.90356 13.5831 4.1262 13.052 4.5197 12.6608C4.91318 12.2696 5.44551 12.05 6.00039 12.05H29.6764C30.2333 12.05 30.7675 12.2712 31.1612 12.665C31.5551 13.0589 31.7764 13.593 31.7764 14.15V16.7299ZM44.1004 35.6659C44.1017 35.7402 44.0822 35.8134 44.044 35.877C44.0059 35.9406 43.9505 35.9923 43.8844 36.0259C43.8226 36.0682 43.7494 36.0909 43.6744 36.0909C43.5994 36.0909 43.5262 36.0682 43.4644 36.0259L34.8004 31.0099V18.5179L43.4884 13.502C43.5502 13.4597 43.6234 13.437 43.6984 13.437C43.7734 13.437 43.8466 13.4597 43.9084 13.502C43.9745 13.5357 44.0299 13.5873 44.068 13.651C44.1062 13.7146 44.1257 13.7877 44.1244 13.862L44.1004 35.6659Z" fill="#1D1C1D"/>
<path id="Vector_2" d="M25.608 24.302C25.2419 24.1745 24.8403 24.1963 24.4901 24.3624C24.1397 24.5286 23.8689 24.8259 23.736 25.1901C23.2955 26.3883 22.4994 27.4231 21.4544 28.1563C20.4095 28.8895 19.1654 29.2858 17.8889 29.2924C16.6124 29.2989 15.3642 28.9153 14.3118 28.1928C13.2594 27.4704 12.4528 26.4436 12 25.25C11.8473 24.9131 11.5737 24.6458 11.2333 24.5011C10.8928 24.3563 10.5105 24.3448 10.1619 24.4685C9.81334 24.5923 9.52392 24.8424 9.35097 25.1694C9.17802 25.4964 9.13414 25.8763 9.22801 26.234C9.86803 28.0192 11.0439 29.5632 12.5947 30.6546C14.1455 31.7461 15.9956 32.3319 17.892 32.3319C19.7885 32.3319 21.6386 31.7461 23.1894 30.6546C24.7401 29.5632 25.916 28.0192 26.556 26.234C26.6291 26.0455 26.6622 25.8439 26.6534 25.642C26.6447 25.44 26.5941 25.2419 26.5052 25.0604C26.4161 24.8789 26.2904 24.7179 26.136 24.5874C25.9815 24.4569 25.8018 24.3596 25.608 24.302Z" fill="#1D1C1D"/>
<path id="Vector_3" d="M14.8442 23.438C15.1926 23.4403 15.5338 23.3395 15.8248 23.1481C16.116 22.9568 16.344 22.6835 16.48 22.3628C16.6161 22.0421 16.654 21.6883 16.5892 21.346C16.5244 21.0037 16.3597 20.6882 16.116 20.4394C15.8721 20.1905 15.5601 20.0195 15.2193 19.9478C14.8783 19.8761 14.5238 19.9069 14.2004 20.0363C13.877 20.1658 13.5991 20.3882 13.4019 20.6753C13.2047 20.9626 13.0969 21.3016 13.0922 21.65C13.0874 21.8831 13.1292 22.1147 13.215 22.3315C13.301 22.5482 13.4292 22.7456 13.5924 22.9121C13.7556 23.0786 13.9503 23.2109 14.1653 23.3012C14.3802 23.3915 14.611 23.438 14.8442 23.438Z" fill="#1D1C1D"/>
<path id="Vector_4" d="M20.5561 23.438C20.9044 23.4403 21.2456 23.3395 21.5368 23.1481C21.8279 22.9568 22.0558 22.6835 22.1918 22.3628C22.3279 22.0421 22.366 21.6883 22.3012 21.346C22.2364 21.0037 22.0717 20.6882 21.8279 20.4394C21.584 20.1905 21.272 20.0195 20.9311 19.9478C20.5903 19.8761 20.2357 19.9069 19.9123 20.0363C19.5889 20.1658 19.3111 20.3882 19.1138 20.6753C18.9166 20.9626 18.8089 21.3016 18.8041 21.65C18.7993 21.8831 18.841 22.1147 18.9269 22.3315C19.0129 22.5482 19.1411 22.7456 19.3043 22.9121C19.4675 23.0786 19.6622 23.2109 19.8772 23.3012C20.0921 23.3915 20.323 23.438 20.5561 23.438Z" fill="#1D1C1D"/>
</g>
</svg>
