<svg width="48" height="49" viewBox="0 0 48 49" fill="none" xmlns="http://www.w3.org/2000/svg">
<g id="Frame">
<path id="Vector" d="M42.0004 13.346H29.9164V10.154C29.9164 8.80134 29.3791 7.50414 28.4227 6.5477C27.4661 5.59127 26.1689 5.05396 24.8164 5.05396H6.00039C4.64876 5.05712 3.35339 5.59545 2.39765 6.55121C1.4419 7.50695 0.903559 8.80232 0.900391 10.154V26.0779C0.900391 27.4306 1.43771 28.7278 2.39414 29.6842C3.35058 30.6406 4.64778 31.1779 6.00039 31.1779H7.92039V35.3059C7.92003 35.5924 8.00105 35.873 8.154 36.1153C8.30697 36.3574 8.52558 36.5512 8.78439 36.6739C9.04644 36.7889 9.33507 36.8296 9.61868 36.7915C9.90228 36.7534 10.17 36.638 10.3924 36.4579L16.7044 31.1779H18.0844V34.3579C18.0844 35.7137 18.623 37.0139 19.5817 37.9727C20.5403 38.9314 21.8405 39.4699 23.1964 39.4699H31.2964L37.6084 44.7619C37.8826 44.9866 38.2259 45.1096 38.5804 45.1099C38.8004 45.1096 39.0176 45.0604 39.2164 44.9659C39.4733 44.8441 39.6907 44.6522 39.8435 44.4122C39.9964 44.1724 40.0784 43.8943 40.0804 43.6099V39.4699H42.0004C43.3529 39.4699 44.6501 38.9326 45.6067 37.9762C46.5631 37.0198 47.1004 35.7226 47.1004 34.3699V18.4459C47.0972 17.0944 46.5589 15.799 45.6031 14.8432C44.6474 13.8875 43.352 13.3491 42.0004 13.346ZM16.1524 28.1779C15.8026 28.1839 15.4648 28.3063 15.1924 28.5259L10.9204 32.1259V29.7259C10.9204 29.3281 10.7624 28.9466 10.481 28.6652C10.1997 28.384 9.81821 28.2259 9.42039 28.2259H6.00039C5.44343 28.2259 4.90929 28.0046 4.51547 27.6109C4.12164 27.217 3.90039 26.6828 3.90039 26.1259V10.154C3.90354 9.59796 4.1258 9.06566 4.51895 8.67251C4.9121 8.27936 5.4444 8.0571 6.00039 8.05395H24.8164C25.3733 8.05395 25.9075 8.2752 26.3012 8.66903C26.6951 9.06285 26.9164 9.59699 26.9164 10.154V26.0659C26.9164 26.3432 26.8618 26.6179 26.7556 26.8742C26.6495 27.1304 26.4938 27.3632 26.2978 27.5593C26.1017 27.7555 25.8688 27.911 25.6126 28.0172C25.3564 28.1233 25.0817 28.1779 24.8044 28.1779H16.1524ZM44.1004 34.3699C44.1004 34.9268 43.8791 35.461 43.4852 35.8549C43.0915 36.2486 42.5573 36.4699 42.0004 36.4699H38.5804C38.1826 36.4699 37.801 36.628 37.5197 36.9092C37.2385 37.1906 37.0804 37.5721 37.0804 37.9699V40.3699L32.8084 36.7699C32.5411 36.5399 32.2009 36.4124 31.8484 36.4099H23.1964C22.6363 36.4099 22.099 36.1874 21.703 35.7913C21.3068 35.3953 21.0844 34.8581 21.0844 34.2979V31.1779H24.8164C26.1689 31.1779 27.4661 30.6406 28.4227 29.6842C29.3791 28.7278 29.9164 27.4306 29.9164 26.0779V16.3579H42.0004C42.5564 16.361 43.0886 16.5833 43.4818 16.9765C43.8749 17.3696 44.0972 17.902 44.1004 18.4579V34.3699Z" fill="#1D1C1D"/>
<path id="Vector_2" d="M9.16791 16.3219C8.85388 16.3289 8.54893 16.4285 8.29124 16.6082C8.03356 16.7878 7.83462 17.0395 7.71931 17.3317C7.60402 17.6239 7.5775 17.9435 7.6431 18.2507C7.70868 18.5579 7.86345 18.8389 8.08803 19.0585C8.31259 19.2781 8.59698 19.4266 8.90556 19.4854C9.21412 19.544 9.53316 19.5104 9.8227 19.3886C10.1122 19.2668 10.3594 19.0624 10.5332 18.8008C10.7071 18.539 10.7998 18.232 10.7999 17.9179C10.8016 17.7047 10.7603 17.4935 10.6784 17.2967C10.5966 17.0999 10.4758 16.9217 10.3235 16.7726C10.1711 16.6237 9.99021 16.507 9.79164 16.4294C9.59308 16.352 9.38094 16.3154 9.16791 16.3219Z" fill="#1D1C1D"/>
<path id="Vector_3" d="M15.4439 16.3219C15.1287 16.3243 14.8213 16.42 14.5605 16.5967C14.2996 16.7736 14.0969 17.0236 13.9779 17.3155C13.859 17.6073 13.8291 17.9278 13.892 18.2367C13.9549 18.5454 14.1079 18.8287 14.3315 19.0507C14.5552 19.2727 14.8396 19.4235 15.1488 19.4841C15.4581 19.5447 15.7784 19.5124 16.0694 19.3914C16.3602 19.2702 16.6089 19.0656 16.7837 18.8034C16.9586 18.5412 17.0519 18.2331 17.0519 17.9179C17.0519 17.7073 17.0102 17.4988 16.9292 17.3044C16.8483 17.11 16.7297 16.9335 16.5801 16.7851C16.4307 16.6368 16.2533 16.5195 16.0583 16.44C15.8633 16.3605 15.6545 16.3204 15.4439 16.3219Z" fill="#1D1C1D"/>
<path id="Vector_4" d="M21.7323 19.5139C22.0479 19.5139 22.3566 19.4203 22.6189 19.2449C22.8814 19.0696 23.086 18.8203 23.2068 18.5287C23.3275 18.2371 23.3592 17.9161 23.2977 17.6065C23.236 17.2969 23.0841 17.0125 22.8609 16.7893C22.6377 16.5661 22.3533 16.4141 22.0437 16.3525C21.7341 16.291 21.4131 16.3226 21.1215 16.4434C20.8299 16.5641 20.5806 16.7687 20.4052 17.0312C20.2299 17.2936 20.1363 17.6023 20.1363 17.9179C20.1346 18.1279 20.1748 18.3362 20.2545 18.5305C20.3341 18.7249 20.4517 18.9014 20.6002 19.0499C20.7487 19.1984 20.9253 19.316 21.1197 19.3957C21.3139 19.4753 21.5223 19.5155 21.7323 19.5139Z" fill="#1D1C1D"/>
</g>
</svg>
