<svg width="29" height="28" viewBox="0 0 29 28" fill="none" xmlns="http://www.w3.org/2000/svg">
<g id="ph:money">
<path id="Vector" d="M14.6667 9.625C13.8015 9.625 12.9556 9.88159 12.2361 10.3623C11.5167 10.8431 10.9559 11.5263 10.6248 12.3258C10.2936 13.1252 10.207 14.0049 10.3758 14.8535C10.5446 15.7022 10.9613 16.4817 11.5732 17.0936C12.185 17.7054 12.9646 18.1221 13.8132 18.2909C14.6619 18.4597 15.5416 18.3731 16.341 18.042C17.1404 17.7108 17.8237 17.1501 18.3044 16.4306C18.7852 15.7112 19.0417 14.8653 19.0417 14C19.0417 12.8397 18.5808 11.7269 17.7603 10.9064C16.9399 10.0859 15.8271 9.625 14.6667 9.625ZM14.6667 16.625C14.1476 16.625 13.6401 16.471 13.2084 16.1826C12.7767 15.8942 12.4402 15.4842 12.2416 15.0045C12.0429 14.5249 11.9909 13.9971 12.0922 13.4879C12.1935 12.9787 12.4435 12.511 12.8106 12.1438C13.1777 11.7767 13.6454 11.5267 14.1546 11.4254C14.6638 11.3242 15.1916 11.3761 15.6713 11.5748C16.1509 11.7735 16.5609 12.1099 16.8494 12.5416C17.1378 12.9733 17.2917 13.4808 17.2917 14C17.2917 14.6962 17.0152 15.3639 16.5229 15.8562C16.0306 16.3484 15.3629 16.625 14.6667 16.625ZM26.9167 6.125H2.41675C2.18468 6.125 1.96212 6.21719 1.79803 6.38128C1.63394 6.54538 1.54175 6.76794 1.54175 7V21C1.54175 21.2321 1.63394 21.4546 1.79803 21.6187C1.96212 21.7828 2.18468 21.875 2.41675 21.875H26.9167C27.1488 21.875 27.3714 21.7828 27.5355 21.6187C27.6996 21.4546 27.7917 21.2321 27.7917 21V7C27.7917 6.76794 27.6996 6.54538 27.5355 6.38128C27.3714 6.21719 27.1488 6.125 26.9167 6.125ZM21.8472 20.125H7.48628C7.1925 19.1314 6.65482 18.2272 5.9222 17.4945C5.18958 16.7619 4.28531 16.2242 3.29175 15.9305V12.0695C4.28531 11.7758 5.18958 11.2381 5.9222 10.5055C6.65482 9.77283 7.1925 8.86856 7.48628 7.875H21.8472C22.141 8.86856 22.6787 9.77283 23.4113 10.5055C24.1439 11.2381 25.0482 11.7758 26.0417 12.0695V15.9305C25.0482 16.2242 24.1439 16.7619 23.4113 17.4945C22.6787 18.2272 22.141 19.1314 21.8472 20.125ZM26.0417 10.2123C24.9922 9.76105 24.1557 8.92452 23.7044 7.875H26.0417V10.2123ZM5.62909 7.875C5.1778 8.92452 4.34127 9.76105 3.29175 10.2123V7.875H5.62909ZM3.29175 17.7877C4.34127 18.2389 5.1778 19.0755 5.62909 20.125H3.29175V17.7877ZM23.7044 20.125C24.1557 19.0755 24.9922 18.2389 26.0417 17.7877V20.125H23.7044Z" fill="white"/>
</g>
</svg>
